# xmcd CD database file
#
# Track frame offsets:
#	150
#	21184
#	44663
#	69555
#	94382
#	114552
#	137301
#	157215
#	180645
#	200974
#	220545
#
# Disc length: 3283 seconds
#
# Revision: 7
# Processed by: cddbd v1.5.2PL0 Copyright (c) Steve Scherf et al.
# Submitted via: CDex 1.51
#
DISCID=a40cd10b
DTITLE=Keiko Matsui - Whisper From The Mirror
DYEAR=2000
DGENRE=Jazz
TTITLE0=Whisper from the Mirror
TTITLE1=Invisible Wing
TTITLE2=Tears of the Ocean
TTITLE3=Between the Moons
TTITLE4=Beyond the Light
TTITLE5=Torches on the Earth
TTITLE6=Dimensions
TTITLE7=Savanna, No problem
TTITLE8=Midnight Stone
TTITLE9=See you there
TTITLE10=Ever After
EXTD=YEAR: 2000
EXTT0=
EXTT1=
EXTT2=
EXTT3=
EXTT4=
EXTT5=
EXTT6=
EXTT7=
EXTT8=
EXTT9=
EXTT10=4 hand piano, with Bob James
PLAYORDER=
